<svg xmlns="http://www.w3.org/2000/svg" width="15.722" height="17.5" viewBox="0 0 15.722 17.5">
  <g id="Group_23267" data-name="Group 23267" transform="translate(-404.25 -917.25)">
    <path id="Path_38314" data-name="Path 38314" d="M4,6.778A1.778,1.778,0,0,1,5.778,5H16.444a1.778,1.778,0,0,1,1.778,1.778V17.444a1.778,1.778,0,0,1-1.778,1.778H5.778A1.778,1.778,0,0,1,4,17.444Z" transform="translate(401 914.778)" fill="none" stroke="#1e1e1e" stroke-linecap="round" stroke-linejoin="round" stroke-width="1.5"/>
    <path id="Path_38315" data-name="Path 38315" d="M16,3V6.556" transform="translate(399.667 915)" fill="none" stroke="#1e1e1e" stroke-linecap="round" stroke-linejoin="round" stroke-width="1.5"/>
    <path id="Path_38316" data-name="Path 38316" d="M8,3V6.556" transform="translate(400.556 915)" fill="none" stroke="#1e1e1e" stroke-linecap="round" stroke-linejoin="round" stroke-width="1.5"/>
    <path id="Path_38317" data-name="Path 38317" d="M4,11H18.222" transform="translate(401 914.111)" fill="none" stroke="#1e1e1e" stroke-linecap="round" stroke-linejoin="round" stroke-width="1.5"/>
    <path id="Path_38318" data-name="Path 38318" d="M7,14h.012" transform="translate(400.667 913.778)" fill="none" stroke="#1e1e1e" stroke-linecap="round" stroke-linejoin="round" stroke-width="1.5"/>
    <path id="Path_38319" data-name="Path 38319" d="M10.01,14h0" transform="translate(400.332 913.778)" fill="none" stroke="#1e1e1e" stroke-linecap="round" stroke-linejoin="round" stroke-width="1.5"/>
    <path id="Path_38320" data-name="Path 38320" d="M13.01,14h0" transform="translate(399.999 913.778)" fill="none" stroke="#1e1e1e" stroke-linecap="round" stroke-linejoin="round" stroke-width="1.5"/>
    <path id="Path_38321" data-name="Path 38321" d="M16.015,14h0" transform="translate(399.665 913.778)" fill="none" stroke="#1e1e1e" stroke-linecap="round" stroke-linejoin="round" stroke-width="1.5"/>
    <path id="Path_38322" data-name="Path 38322" d="M13.015,17h0" transform="translate(399.998 913.444)" fill="none" stroke="#1e1e1e" stroke-linecap="round" stroke-linejoin="round" stroke-width="1.5"/>
    <path id="Path_38323" data-name="Path 38323" d="M7.01,17h0" transform="translate(400.666 913.444)" fill="none" stroke="#1e1e1e" stroke-linecap="round" stroke-linejoin="round" stroke-width="1.5"/>
    <path id="Path_38324" data-name="Path 38324" d="M10.01,17h0" transform="translate(400.332 913.444)" fill="none" stroke="#1e1e1e" stroke-linecap="round" stroke-linejoin="round" stroke-width="1.5"/>
  </g>
</svg>
