<svg xmlns="http://www.w3.org/2000/svg" width="18.28" height="15.936" viewBox="0 0 18.28 15.936">
  <g id="Group_25983" data-name="Group 25983" transform="translate(-977.86 -447.73)">
    <path id="Vector" d="M5,.858.858,5A2.925,2.925,0,1,1,5,.858Z" transform="translate(984.073 452.564)" fill="none" stroke="#242424" stroke-linecap="round" stroke-linejoin="round" stroke-width="2"/>
    <path id="Vector-2" data-name="Vector" d="M12.758,1.668A7.874,7.874,0,0,0,8,0C5.114,0,2.424,1.7.552,4.644a4.354,4.354,0,0,0,0,4.243,11.713,11.713,0,0,0,2.216,2.592" transform="translate(979 448.73)" fill="none" stroke="#242424" stroke-linecap="round" stroke-linejoin="round" stroke-width="2"/>
    <path id="Vector-3" data-name="Vector" d="M.853,9.788a6.88,6.88,0,0,0,2.074.3c2.886,0,5.576-1.7,7.448-4.644a4.354,4.354,0,0,0,0-4.243L9.958.588" transform="translate(984.073 452.164)" fill="none" stroke="#242424" stroke-linecap="round" stroke-linejoin="round" stroke-width="2"/>
    <path id="Vector-4" data-name="Vector" d="M2.306,0A2.914,2.914,0,0,1,0,2.306" transform="translate(987.564 456.063)" fill="none" stroke="#242424" stroke-linecap="round" stroke-linejoin="round" stroke-width="2"/>
    <path id="Vector-5" data-name="Vector" d="M12.684,0,0,12.977" transform="translate(980.656 449.275)" fill="none" stroke="#242424" stroke-linecap="round" stroke-linejoin="round" stroke-width="2"/>
  </g>
</svg>
