<svg xmlns="http://www.w3.org/2000/svg" xmlns:xlink="http://www.w3.org/1999/xlink" width="258" height="166" viewBox="0 0 258 166">
  <defs>
    <filter id="Path_820" x="0" y="0" width="258" height="166" filterUnits="userSpaceOnUse">
      <feOffset input="SourceAlpha"/>
      <feGaussianBlur stdDeviation="5" result="blur"/>
      <feFlood flood-opacity="0.039"/>
      <feComposite operator="in" in2="blur"/>
      <feComposite in="SourceGraphic"/>
    </filter>
    <filter id="Rectangle_17785" x="198" y="106" width="60" height="60" filterUnits="userSpaceOnUse">
      <feOffset input="SourceAlpha"/>
      <feGaussianBlur stdDeviation="5" result="blur-2"/>
      <feFlood flood-opacity="0.02"/>
      <feComposite operator="in" in2="blur-2"/>
      <feComposite in="SourceGraphic"/>
    </filter>
  </defs>
  <g id="Group_26127" data-name="Group 26127" transform="translate(-52.5 -554)">
    <g transform="matrix(1, 0, 0, 1, 52.5, 554)" filter="url(#Path_820)">
      <path id="Path_820-2" data-name="Path 820" d="M192.9,0H34.1A34.1,34.1,0,0,0,0,34.1V100.9A34.1,34.1,0,0,0,34.1,135H166.813A20.187,20.187,0,0,0,187,114.814h0A19.814,19.814,0,0,1,206.813,95,20.187,20.187,0,0,0,227,74.814V34.1A34.1,34.1,0,0,0,192.9,0" transform="translate(15.5 15.5)" fill="#393939" stroke="rgba(36,36,36,0.07)" stroke-width="1"/>
    </g>
    <g transform="matrix(1, 0, 0, 1, 52.5, 554)" filter="url(#Rectangle_17785)">
      <g id="Rectangle_17785-2" data-name="Rectangle 17785" transform="translate(213 121)" fill="#fff" stroke="rgba(36,36,36,0.08)" stroke-width="1">
        <rect width="30" height="30" rx="15" stroke="none"/>
        <rect x="0.5" y="0.5" width="29" height="29" rx="14.5" fill="none"/>
      </g>
    </g>
  </g>
</svg>
