<svg xmlns="http://www.w3.org/2000/svg" width="35" height="35" viewBox="0 0 35 35">
  <g id="Group_25937" data-name="Group 25937" transform="translate(-1175 -73)">
    <rect id="Rectangle_17710" data-name="Rectangle 17710" width="35" height="35" rx="17.5" transform="translate(1175 73)" fill="#f6d64f"/>
    <g id="Group_25936" data-name="Group 25936" transform="translate(1066 -1015)">
      <path id="Vector" d="M10.838,5.419A5.419,5.419,0,1,1,5.419,0,5.419,5.419,0,0,1,10.838,5.419Z" transform="translate(121.097 1100.097)" fill="#2e2e2e"/>
      <path id="Vector-2" data-name="Vector" d="M8.515,17a.75.75,0,0,1-.774-.743v-.062a.774.774,0,0,1,1.548,0A.8.8,0,0,1,8.515,17Zm5.527-2.183a.793.793,0,0,1-.55-.224l-.1-.1A.772.772,0,0,1,14.484,13.4l.1.1a.771.771,0,0,1,0,1.092A.762.762,0,0,1,14.043,14.817Zm-11.055,0a.793.793,0,0,1-.55-.224.771.771,0,0,1,0-1.092l.1-.1a.772.772,0,1,1,1.092,1.092l-.1.1A.775.775,0,0,1,2.988,14.817ZM16.257,9.29h-.062a.774.774,0,0,1,0-1.548A.8.8,0,0,1,17,8.515.75.75,0,0,1,16.257,9.29ZM.836,9.29H.774a.774.774,0,0,1,0-1.548.8.8,0,0,1,.805.774A.75.75,0,0,1,.836,9.29ZM13.942,3.863a.793.793,0,0,1-.55-.224.771.771,0,0,1,0-1.092l.1-.1a.772.772,0,1,1,1.092,1.092l-.1.1A.762.762,0,0,1,13.942,3.863Zm-10.853,0a.793.793,0,0,1-.55-.224l-.1-.108A.772.772,0,0,1,3.53,2.439l.1.1a.771.771,0,0,1,0,1.092A.751.751,0,0,1,3.089,3.863ZM8.515,1.579A.75.75,0,0,1,7.741.836V.774a.774.774,0,0,1,1.548,0A.8.8,0,0,1,8.515,1.579Z" transform="translate(118 1097)" fill="#2e2e2e"/>
    </g>
  </g>
</svg>
