<svg xmlns="http://www.w3.org/2000/svg" width="18" height="18.038" viewBox="0 0 18 18.038">
  <g id="Group_25904" data-name="Group 25904" transform="translate(-128.5 -291.21)">
    <path id="Vector" d="M7.2,0H5.6C1.6,0,0,1.6,0,5.6v4.8c0,4,1.6,5.6,5.6,5.6h4.8c4,0,5.6-1.6,5.6-5.6V8.8" transform="translate(129.5 292.249)" fill="none" stroke="#242424" stroke-linecap="round" stroke-linejoin="round" stroke-width="2"/>
    <path id="Vector-2" data-name="Vector" d="M5.541.783.685,5.64a1.672,1.672,0,0,0-.407.814L.013,8.309A.878.878,0,0,0,1.061,9.356l1.855-.265a1.726,1.726,0,0,0,.814-.407L8.586,3.828a1.872,1.872,0,0,0,0-3.045A1.872,1.872,0,0,0,5.541.783Z" transform="translate(135.8 292.249)" fill="none" stroke="#242424" stroke-linecap="round" stroke-linejoin="round" stroke-width="2"/>
  </g>
</svg>
