<svg xmlns="http://www.w3.org/2000/svg" xmlns:xlink="http://www.w3.org/1999/xlink" width="15.636" height="16" viewBox="0 0 15.636 16">
  <defs>
    <clipPath id="clip-path">
      <path id="Path_875" data-name="Path 875" d="M-353.345,291.845H-360.8v3.091h4.291c-.4,1.964-2.073,3.091-4.291,3.091a4.718,4.718,0,0,1-4.727-4.727,4.718,4.718,0,0,1,4.727-4.727,4.625,4.625,0,0,1,2.945,1.055l2.327-2.327a7.963,7.963,0,0,0-5.273-2,7.977,7.977,0,0,0-8,8,7.977,7.977,0,0,0,8,8c4,0,7.636-2.909,7.636-8A6.636,6.636,0,0,0-353.345,291.845Z" transform="translate(368.8 -285.3)"/>
    </clipPath>
  </defs>
  <g id="Group_26154" data-name="Group 26154" transform="translate(368.8 -285.3)">
    <g id="Group_26148" data-name="Group 26148" transform="translate(-368.8 285.3)" clip-path="url(#clip-path)">
      <path id="Path_874" data-name="Path 874" d="M-370.8,303.755V294.3l6.182,4.727Z" transform="translate(370.073 -291.027)" fill="#fbbc05"/>
    </g>
    <g id="Group_26149" data-name="Group 26149" transform="translate(-368.8 285.3)" clip-path="url(#clip-path)">
      <path id="Path_876" data-name="Path 876" d="M-370.8,287.3l6.182,4.727,2.545-2.218,8.727-1.418V283.3H-370.8Z" transform="translate(370.073 -284.027)" fill="#ea4335"/>
    </g>
    <g id="Group_26151" data-name="Group 26151" transform="translate(-368.8 285.3)">
      <g id="Group_26150" data-name="Group 26150" clip-path="url(#clip-path)">
        <path id="Path_878" data-name="Path 878" d="M-370.8,296.755l10.909-8.364,2.873.364,3.673-5.455v17.455H-370.8Z" transform="translate(370.073 -284.027)" fill="#34a853"/>
      </g>
    </g>
    <g id="Group_26153" data-name="Group 26153" transform="translate(-368.8 285.3)">
      <g id="Group_26152" data-name="Group 26152" clip-path="url(#clip-path)">
        <path id="Path_880" data-name="Path 880" d="M-345.073,307.755l-11.273-8.727-1.455-1.091,12.727-3.636Z" transform="translate(361.8 -291.027)" fill="#4285f4"/>
      </g>
    </g>
  </g>
</svg>
