<svg xmlns="http://www.w3.org/2000/svg" width="50" height="50" viewBox="0 0 50 50">
  <g id="Group_25965" data-name="Group 25965" transform="translate(-695 -265)">
    <circle id="Ellipse_487" data-name="Ellipse 487" cx="25" cy="25" r="25" transform="translate(695 265)" fill="#c6bcff"/>
    <g id="Group_25898" data-name="Group 25898" transform="translate(705.417 276.884)">
      <path id="Path_803" data-name="Path 803" d="M23.78,14.295c-.152-1.82-2.417-2.98-4.113-2.759a3.7,3.7,0,0,0-2.851,2.083c-1.331,3.473,2.94,10.445,4.784,13.519l-1.107.8a38.315,38.315,0,0,1-3.731-5.818c-1.375-2.812-3.185-6.747-1.429-9.79a5.448,5.448,0,0,1,7.931-1.516,4.258,4.258,0,0,1,1.879,3.483H23.78" transform="translate(-9.885 -6.578)" fill="#242424"/>
      <path id="Path_804" data-name="Path 804" d="M5.3,28.259a2.507,2.507,0,0,0-2.914.331c-.786.838-.484,2.135-.072,3.189a20.718,20.718,0,0,0,3.846,6.358c.22.239.492.507.718.714L6.1,39.976a10.781,10.781,0,0,1-1.862-1.548,18.024,18.024,0,0,1-3.735-5.94c-.677-1.6-.859-3.935.637-5.218C2.573,26,5.2,25.889,6.4,27.455l-1.1.8" transform="translate(0 -17.796)" fill="#242424"/>
      <path id="Path_805" data-name="Path 805" d="M42.976,14.285c-.041-2.853,2.986-4.776,5.642-4.563A5.412,5.412,0,0,1,53.244,13.3c1.323,4.508-2.977,11.133-5.617,14.624l-1.108-.8c1.783-2.966,6.415-10.51,4.645-13.784a3.762,3.762,0,0,0-5.379-1.187,2.876,2.876,0,0,0-1.446,2.128Z" transform="translate(-29.081 -6.568)" fill="#242424"/>
      <path id="Path_806" data-name="Path 806" d="M69.388,27.455c1.2-1.568,3.826-1.457,5.257-.185A3.649,3.649,0,0,1,75.8,29.941a6.875,6.875,0,0,1-.517,2.546,18.029,18.029,0,0,1-3.735,5.94,10.824,10.824,0,0,1-1.862,1.548l-.772-1.125a19.528,19.528,0,0,0,4.564-7.071c.413-1.053.714-2.351-.071-3.189a2.507,2.507,0,0,0-2.914-.331l-1.1-.8" transform="translate(-46.633 -17.795)" fill="#242424"/>
      <path id="Path_807" data-name="Path 807" d="M42.356,26.363a142.432,142.432,0,0,1,0-18.377h1.365c.228,3.063.28,6.125.287,9.188-.009,3.063-.061,6.125-.287,9.188Z" transform="translate(-28.461 -5.404)" fill="#242424"/>
      <path id="Path_808" data-name="Path 808" d="M34.379,62.1c-.959-1.138-6.112-2.277-9.587-2.277s-8.628,1.138-9.587,2.277c-.366.435.261,3.535.7,4.015s5.352.6,8.887.6,8.448-.12,8.887-.6,1.066-3.58.7-4.015" transform="translate(-10.215 -40.48)" fill="#242424"/>
      <path id="Path_809" data-name="Path 809" d="M43.29,1.645A1.645,1.645,0,1,1,41.645,0,1.645,1.645,0,0,1,43.29,1.645" transform="translate(-27.068 0)" fill="#242424"/>
    </g>
  </g>
</svg>
