<svg xmlns="http://www.w3.org/2000/svg" width="130.002" height="29.308" viewBox="0 0 130.002 29.308">
  <g id="Group_26252" data-name="Group 26252" transform="translate(23545 17764)">
    <path id="Path_885" data-name="Path 885" d="M0,94.652l1.855-4.429c6.569-.2,12.528.65,17.385,3.381A2.123,2.123,0,0,0,21.4,94.8a1.933,1.933,0,0,0,2.035-1.2c4.6-2.71,10.585-3.652,17.535-3.351l1.676,4.429c-6.633-2.1-12.95-2.337-18.912-.479-.128,1.329-.778,1.849-2.364,1.849-1.526,0-2.275-.408-2.484-1.849A31.927,31.927,0,0,0,0,94.652" transform="translate(-23545 -17830.744)" fill="#242424"/>
    <path id="Path_886" data-name="Path 886" d="M11.854,77.448l1.5-2.454c6.79.214,11.861,2.659,15.562,6.88-4.87-4.1-10.587-5.47-17.058-4.427" transform="translate(-23553.771 -17819.494)" fill="#242424"/>
    <path id="Path_887" data-name="Path 887" d="M23.882,66.52,25.3,64.635c5.767,1.159,10.034,3.947,12.51,8.681-3.42-4.882-8.156-6.951-13.931-6.8" transform="translate(-23562.672 -17811.828)" fill="#242424"/>
    <path id="Path_888" data-name="Path 888" d="M103.721,77.448l-1.5-2.454c-6.79.214-11.861,2.659-15.562,6.88,4.87-4.1,10.587-5.47,17.058-4.427" transform="translate(-23609.131 -17819.494)" fill="#242424"/>
    <path id="Path_889" data-name="Path 889" d="M100.594,66.52l-1.421-1.885c-5.767,1.159-10.034,3.947-12.51,8.681,3.42-4.882,8.156-6.951,13.931-6.8" transform="translate(-23609.131 -17811.828)" fill="#242424"/>
    <path id="Path_890" data-name="Path 890" d="M61.233,22.034c-4.818-3.262-10.084-7.152-11.191-12.6-.987,5.327-6.194,9.217-11.209,12.6,5.115,1.64,8.712,5.963,11.2,10.174,2.282-4.182,5.746-8.592,11.2-10.174" transform="translate(-23573.736 -17770.982)" fill="#242424"/>
    <path id="Path_891" data-name="Path 891" d="M80.181,1.017A1.017,1.017,0,1,1,79.163,0a1.017,1.017,0,0,1,1.017,1.017" transform="translate(-23602.828 -17764)" fill="#242424"/>
    <path id="Path_892" data-name="Path 892" d="M192.956,27.782v6.937h-2.79V18.934h2.728v5.958h.139a3.44,3.44,0,0,1,1.291-1.584,3.95,3.95,0,0,1,2.231-.582,4.312,4.312,0,0,1,2.15.516,3.507,3.507,0,0,1,1.422,1.511,5.32,5.32,0,0,1,.5,2.428v7.538h-2.79V27.613a2.649,2.649,0,0,0-.613-1.861,2.213,2.213,0,0,0-1.715-.667,2.7,2.7,0,0,0-1.322.32,2.259,2.259,0,0,0-.909.921,3.006,3.006,0,0,0-.328,1.457" transform="translate(-23685.725 -17778.01)" fill="#242424"/>
    <path id="Path_893" data-name="Path 893" d="M238.729,50.39a5.83,5.83,0,0,1-1.052-.089,4.043,4.043,0,0,1-.767-.2l.647-2.173a3.724,3.724,0,0,0,1.087.17,1.36,1.36,0,0,0,.844-.3,2.179,2.179,0,0,0,.621-.96l.239-.64-4.293-12.085h2.96l2.728,8.941h.124l2.736-8.941h2.967l-4.74,13.272A5.374,5.374,0,0,1,241.95,49a3.636,3.636,0,0,1-1.337,1.033,4.538,4.538,0,0,1-1.884.358" transform="translate(-23719.68 -17789.242)" fill="#242424"/>
    <path id="Path_894" data-name="Path 894" d="M289.193,34.927a4.48,4.48,0,0,1-2.5-.717,4.871,4.871,0,0,1-1.742-2.081,7.761,7.761,0,0,1-.64-3.314,7.681,7.681,0,0,1,.651-3.333,4.8,4.8,0,0,1,1.761-2.058,4.555,4.555,0,0,1,2.474-.7,3.678,3.678,0,0,1,1.711.351,3.3,3.3,0,0,1,1.064.84,5.265,5.265,0,0,1,.609.921h.116v-5.9h2.8V34.719h-2.744V32.854h-.17a4.681,4.681,0,0,1-.624.913,3.409,3.409,0,0,1-1.079.821,3.727,3.727,0,0,1-1.688.339m.778-2.289a2.4,2.4,0,0,0,1.511-.482,2.96,2.96,0,0,0,.948-1.345,5.716,5.716,0,0,0,.324-2.012,5.651,5.651,0,0,0-.32-2,2.879,2.879,0,0,0-.94-1.318,2.719,2.719,0,0,0-3.079.016,2.938,2.938,0,0,0-.94,1.341,5.629,5.629,0,0,0-.316,1.958,5.689,5.689,0,0,0,.32,1.977,3.025,3.025,0,0,0,.948,1.364,2.414,2.414,0,0,0,1.545.5" transform="translate(-23755.391 -17778.01)" fill="#242424"/>
    <path id="Path_895" data-name="Path 895" d="M342.592,45.743A6.048,6.048,0,0,1,339.52,45a4.975,4.975,0,0,1-1.985-2.112,7.789,7.789,0,0,1,0-6.436,5.254,5.254,0,0,1,1.954-2.158,5.511,5.511,0,0,1,2.952-.775,6.07,6.07,0,0,1,2.07.351,4.758,4.758,0,0,1,1.726,1.083,5.1,5.1,0,0,1,1.183,1.861,7.513,7.513,0,0,1,.432,2.686v.855h-9.7V38.475h7.029a3.024,3.024,0,0,0-.347-1.43,2.534,2.534,0,0,0-.944-.99,2.686,2.686,0,0,0-1.407-.362,2.737,2.737,0,0,0-1.5.412,2.879,2.879,0,0,0-1.006,1.079,3.1,3.1,0,0,0-.366,1.46v1.642a3.833,3.833,0,0,0,.378,1.769,2.659,2.659,0,0,0,1.056,1.125,3.133,3.133,0,0,0,1.588.389,3.311,3.311,0,0,0,1.1-.173,2.4,2.4,0,0,0,.855-.513,2.151,2.151,0,0,0,.548-.84l2.6.293a4.058,4.058,0,0,1-.936,1.8,4.567,4.567,0,0,1-1.762,1.187,6.681,6.681,0,0,1-2.451.42" transform="translate(-23794.264 -17788.805)" fill="#242424"/>
    <path id="Path_896" data-name="Path 896" d="M388.275,45.468V33.63h2.705V35.6h.123a2.965,2.965,0,0,1,1.114-1.584,3.052,3.052,0,0,1,1.807-.559q.231,0,.52.019a3.833,3.833,0,0,1,.482.058V36.1a3.089,3.089,0,0,0-.559-.112,5.681,5.681,0,0,0-.736-.05,2.829,2.829,0,0,0-1.368.327,2.447,2.447,0,0,0-.952.906,2.539,2.539,0,0,0-.347,1.333v6.96Z" transform="translate(-23832.324 -17788.762)" fill="#242424"/>
    <path id="Path_897" data-name="Path 897" d="M417.953,70.689a1.653,1.653,0,0,1-1.2-.493,1.6,1.6,0,0,1-.493-1.2,1.578,1.578,0,0,1,.493-1.187,1.688,1.688,0,0,1,2.385,0,1.627,1.627,0,0,1,.512,1.187,1.665,1.665,0,0,1-.243.856,1.782,1.782,0,0,1-.617.613,1.605,1.605,0,0,1-.836.227" transform="translate(-23853.029 -17813.811)" fill="#242424"/>
    <path id="Path_898" data-name="Path 898" d="M442.244,45.75a4.873,4.873,0,0,1-2.023-.4,3.255,3.255,0,0,1-1.418-1.2,3.5,3.5,0,0,1-.52-1.958,3.339,3.339,0,0,1,.37-1.657,2.863,2.863,0,0,1,1.01-1.048,5.168,5.168,0,0,1,1.445-.6,11.983,11.983,0,0,1,1.669-.3q1.041-.108,1.688-.2a2.447,2.447,0,0,0,.944-.278.648.648,0,0,0,.3-.589V37.48a1.747,1.747,0,0,0-.516-1.349,2.113,2.113,0,0,0-1.487-.478,2.647,2.647,0,0,0-1.622.447,2.211,2.211,0,0,0-.805,1.056l-2.6-.37a4.186,4.186,0,0,1,1.017-1.808,4.484,4.484,0,0,1,1.734-1.094,6.7,6.7,0,0,1,2.266-.366,7.38,7.38,0,0,1,1.7.2,4.85,4.85,0,0,1,1.549.659,3.394,3.394,0,0,1,1.129,1.245,4.075,4.075,0,0,1,.428,1.966v7.923h-2.682V43.885h-.092a3.371,3.371,0,0,1-1.861,1.607,4.6,4.6,0,0,1-1.615.258m.725-2.05a3.006,3.006,0,0,0,1.457-.335,2.452,2.452,0,0,0,.952-.89,2.3,2.3,0,0,0,.335-1.21v-1.4a1.308,1.308,0,0,1-.443.2,6.52,6.52,0,0,1-.7.162q-.386.069-.763.124l-.655.093a4.866,4.866,0,0,0-1.118.277,1.873,1.873,0,0,0-.778.536,1.494,1.494,0,0,0,.277,2.046,2.446,2.446,0,0,0,1.434.393" transform="translate(-23869.328 -17788.805)" fill="#242424"/>
    <path id="Path_899" data-name="Path 899" d="M489.168,19.029a1.62,1.62,0,0,1-1.141-.443,1.44,1.44,0,0,1,0-2.143,1.7,1.7,0,0,1,2.285,0,1.448,1.448,0,0,1,0,2.143,1.615,1.615,0,0,1-1.145.443m-1.4,1.68h2.79V32.548h-2.79Z" transform="translate(-23905.785 -17775.84)" fill="#242424"/>
  </g>
</svg>
