<svg xmlns="http://www.w3.org/2000/svg" width="89" height="20" viewBox="0 0 89 20">
  <g id="Group_25947" data-name="Group 25947" transform="translate(-280 -73)">
    <text id="HyderAi" transform="translate(307 89)" fill="#fff" font-size="16" font-family="Inter-SemiBold, Inter" font-weight="600"><tspan x="0" y="0">HyderAi</tspan></text>
    <g id="Group_25946" data-name="Group 25946" transform="translate(280 74)">
      <path id="Path_803" data-name="Path 803" d="M20.9,12.86c-.1-1.249-1.657-2.045-2.82-1.893A2.54,2.54,0,0,0,16.122,12.4c-.913,2.383,2.016,7.167,3.281,9.277l-.759.547a26.3,26.3,0,0,1-2.558-3.992c-.943-1.93-2.184-4.63-.98-6.718a3.734,3.734,0,0,1,5.439-1.04,2.922,2.922,0,0,1,1.289,2.39H20.9" transform="translate(-11.369 -7.564)" fill="#fff"/>
      <path id="Path_804" data-name="Path 804" d="M3.632,27.644a1.718,1.718,0,0,0-2,.227,2.089,2.089,0,0,0-.049,2.188,14.219,14.219,0,0,0,2.637,4.363c.151.164.338.348.492.49l-.529.772a7.394,7.394,0,0,1-1.277-1.062A12.369,12.369,0,0,1,.347,30.545c-.464-1.1-.589-2.7.437-3.58a2.587,2.587,0,0,1,3.605.127l-.756.551" transform="translate(0 -20.464)" fill="#fff"/>
      <path id="Path_805" data-name="Path 805" d="M42.976,12.848c-.028-1.957,2.047-3.278,3.869-3.131a3.711,3.711,0,0,1,3.172,2.456c.907,3.093-2.042,7.639-3.852,10.035l-.76-.547c1.223-2.036,4.4-7.212,3.185-9.459a2.579,2.579,0,0,0-3.688-.815,1.974,1.974,0,0,0-.991,1.46Z" transform="translate(-33.448 -7.553)" fill="#fff"/>
      <path id="Path_806" data-name="Path 806" d="M69.239,27.092a2.587,2.587,0,0,1,3.605-.127,2.505,2.505,0,0,1,.791,1.833,4.721,4.721,0,0,1-.355,1.747,12.373,12.373,0,0,1-2.561,4.076,7.423,7.423,0,0,1-1.277,1.062l-.529-.772a13.4,13.4,0,0,0,3.129-4.852,2.088,2.088,0,0,0-.049-2.188,1.718,1.718,0,0,0-2-.227l-.756-.551" transform="translate(-53.635 -20.463)" fill="#fff"/>
      <path id="Path_807" data-name="Path 807" d="M42.263,20.6a97.809,97.809,0,0,1,0-12.61H43.2c.156,2.1.192,4.2.2,6.305s-.042,4.2-.2,6.3Z" transform="translate(-32.735 -6.214)" fill="#fff"/>
      <path id="Path_808" data-name="Path 808" d="M28.318,61.383c-.657-.781-4.191-1.562-6.574-1.562s-5.916.781-6.574,1.562a4.933,4.933,0,0,0,.48,2.755c.3.329,3.67.411,6.094.411s5.793-.082,6.094-.411a4.935,4.935,0,0,0,.48-2.755" transform="translate(-11.748 -46.549)" fill="#fff"/>
      <path id="Path_809" data-name="Path 809" d="M42.256,1.129A1.128,1.128,0,1,1,41.128,0a1.128,1.128,0,0,1,1.128,1.129" transform="translate(-31.132 0)" fill="#fff"/>
    </g>
  </g>
</svg>
