<svg xmlns="http://www.w3.org/2000/svg" width="30" height="30" viewBox="0 0 30 30">
  <g id="Group_25963" data-name="Group 25963" transform="translate(-628 -479)">
    <circle id="Ellipse_489" data-name="Ellipse 489" cx="15" cy="15" r="15" transform="translate(628 479)" fill="#ffaa48"/>
    <g id="Group_25961" data-name="Group 25961" transform="translate(-774.18 -214.958)">
      <path id="Path_816" data-name="Path 816" d="M8.161,6.18v.454a2.922,2.922,0,0,0,.768.8c.361.26.733.505,1.11.743.56.353,1.134.685,1.691,1.043a5.309,5.309,0,0,1,1.2,1.053,3.5,3.5,0,0,1,.84,2.289,5,5,0,0,1-.5,2.312c-.067.134-.146.262-.22.395H2.724c-.091-.17-.2-.346-.282-.532a4.824,4.824,0,0,1-.411-1.576,4.315,4.315,0,0,1,.086-1.494,3.661,3.661,0,0,1,1.07-1.761A7.713,7.713,0,0,1,4.511,8.92c.565-.345,1.136-.683,1.7-1.031A5.142,5.142,0,0,0,7.332,7c.1-.115.2-.24.283-.347V6.11l-.238-.09a2.132,2.132,0,0,1,.184-4.037.539.539,0,0,1,.163-.024.257.257,0,0,1,.218.395c-.033.058-.078.109-.112.166A1.282,1.282,0,0,0,7.8,3.9a1.33,1.33,0,0,0,1.925.423c.041-.029.08-.061.123-.087a.265.265,0,0,1,.386.294A2.156,2.156,0,0,1,8.275,6.172l-.113.008" transform="translate(1409.29 699)" fill="#242424"/>
      <path id="Path_817" data-name="Path 817" d="M7.778,417.19H2.345c-.033,0-.067,0-.1,0a.3.3,0,0,1-.347-.343c.011-.323.007-.647,0-.97a.829.829,0,0,1,.838-.832q5.049.008,10.1,0a.829.829,0,0,1,.838.832c-.007.323-.01.647,0,.97a.309.309,0,0,1-.347.345c-1.85-.005-3.7,0-5.55,0" transform="translate(1409.393 299.766)" fill="#242424"/>
    </g>
  </g>
</svg>
