<svg xmlns="http://www.w3.org/2000/svg" xmlns:xlink="http://www.w3.org/1999/xlink" width="60" height="60" viewBox="0 0 60 60">
  <defs>
    <filter id="Rectangle_17705" x="0" y="0" width="60" height="60" filterUnits="userSpaceOnUse">
      <feOffset input="SourceAlpha"/>
      <feGaussianBlur stdDeviation="5" result="blur"/>
      <feFlood flood-opacity="0.02"/>
      <feComposite operator="in" in2="blur"/>
      <feComposite in="SourceGraphic"/>
    </filter>
  </defs>
  <g id="Component_13_2" data-name="Component 13 – 2" transform="translate(15 15)">
    <g transform="matrix(1, 0, 0, 1, -15, -15)" filter="url(#Rectangle_17705)">
      <g id="Rectangle_17705-2" data-name="Rectangle 17705" transform="translate(15 15)" fill="#fff" stroke="rgba(36,36,36,0.08)" stroke-width="1">
        <rect width="30" height="30" rx="15" stroke="none"/>
        <rect x="0.5" y="0.5" width="29" height="29" rx="14.5" fill="none"/>
      </g>
    </g>
    <g id="Vector" transform="translate(8 8)" fill="none">
      <path d="M10.069.294,3.375,2.518c-4.5,1.5-4.5,3.959,0,5.456l1.987.66.66,1.987c1.5,4.5,3.959,4.5,5.456,0l2.231-6.687C14.7.932,13.071-.707,10.069.294Z" stroke="none"/>
      <path d="M 11.68972682952881 2 C 11.50074672698975 2 11.1758861541748 2.033200263977051 10.69953727722168 2.191980361938477 L 4.009186744689941 4.414680480957031 C 3.087587356567383 4.722892761230469 2.532888412475586 5.030064582824707 2.230779647827148 5.247913360595703 C 2.532711982727051 5.464812278747559 3.086393356323242 5.770224571228027 4.005187034606934 6.075980186462402 L 6.943626880645752 7.05180025100708 L 7.919046878814697 9.989049911499023 C 8.225714683532715 10.91058349609375 8.532121658325195 11.46471881866455 8.749408721923828 11.76614379882812 C 8.966737747192383 11.46459102630615 9.273317337036133 10.91002559661865 9.580327033996582 9.987480163574219 L 11.81124401092529 3.302126884460449 C 12.05237007141113 2.571629524230957 12.01139831542969 2.161497116088867 11.96683788299561 2.033154487609863 C 11.92254638671875 2.018844604492188 11.83201789855957 2.000008583068848 11.68982696533203 2 L 11.68972682952881 2 M 11.68995571136475 -9.5367431640625e-07 C 13.61678791046143 0.0001039505004882812 14.50432872772217 1.529643058776855 13.7088565826416 3.933860778808594 L 11.4774866104126 10.62057018280029 C 9.980016708374023 15.12038135528564 7.518836498260498 15.12037944793701 6.021366596221924 10.62057018280029 L 5.361597061157227 8.633831024169922 L 3.374856948852539 7.974060535430908 C -1.124953269958496 6.476590633392334 -1.124953269958496 4.022820472717285 3.374856948852539 2.517940521240234 L 10.06897640228271 0.293980598449707 C 10.66710090637207 0.09460639953613281 11.21059703826904 -2.6702880859375e-05 11.68995571136475 -9.5367431640625e-07 Z" stroke="none" fill="#242424"/>
    </g>
  </g>
</svg>
