<svg xmlns="http://www.w3.org/2000/svg" width="30" height="30" viewBox="0 0 30 30">
  <g id="Group_25967" data-name="Group 25967" transform="translate(-369 -479)">
    <circle id="Ellipse_488" data-name="Ellipse 488" cx="15" cy="15" r="15" transform="translate(369 479)" fill="#8fd3f3"/>
    <g id="Group_25906" data-name="Group 25906" transform="translate(109.01 92.189)">
      <path id="Vector" d="M7.4,1.735v9.507a1.644,1.644,0,0,1-1.407,1.583l-.248.032A20.475,20.475,0,0,0,1.1,14.2.8.8,0,0,1,0,13.457V2.335a.816.816,0,0,1,.432-.712A15.343,15.343,0,0,1,5.613,0h.048A1.734,1.734,0,0,1,7.4,1.735Z" transform="translate(275.594 394.68)" fill="#242424"/>
      <path id="Vector-2" data-name="Vector" d="M6.973,1.623A15.343,15.343,0,0,0,1.791,0H1.735A1.734,1.734,0,0,0,0,1.735v9.507a1.644,1.644,0,0,0,1.407,1.583l.248.032A20.475,20.475,0,0,1,6.3,14.2a.8.8,0,0,0,1.1-.744V2.335A.8.8,0,0,0,6.973,1.623ZM2.407,4.046h1.8a.6.6,0,0,1,0,1.2h-1.8a.6.6,0,0,1,0-1.2Zm2.4,3.6h-2.4a.6.6,0,1,1,0-1.2h2.4a.6.6,0,1,1,0,1.2Z" transform="translate(266.99 394.68)" fill="#242424"/>
    </g>
  </g>
</svg>
