<svg xmlns="http://www.w3.org/2000/svg" width="18.28" height="15.531" viewBox="0 0 18.28 15.531">
  <g id="Group_25978" data-name="Group 25978" transform="translate(-1099.075 -484.72)">
    <path id="Vector" d="M5.854,2.927A2.927,2.927,0,1,1,2.927,0,2.924,2.924,0,0,1,5.854,2.927Z" transform="translate(1105.288 489.563)" fill="none" stroke="#242424" stroke-linecap="round" stroke-linejoin="round" stroke-width="2"/>
    <path id="Vector-2" data-name="Vector" d="M8,13.531c2.886,0,5.576-1.7,7.448-4.644a4.354,4.354,0,0,0,0-4.243C13.576,1.7,10.886,0,8,0S2.424,1.7.552,4.644a4.354,4.354,0,0,0,0,4.243C2.424,11.83,5.114,13.531,8,13.531Z" transform="translate(1100.215 485.72)" fill="none" stroke="#242424" stroke-linecap="round" stroke-linejoin="round" stroke-width="2"/>
  </g>
</svg>
