<svg xmlns="http://www.w3.org/2000/svg" width="3.5" height="17.5" viewBox="0 0 3.5 17.5">
  <g id="Group_23175" data-name="Group 23175" transform="translate(-300.25 -220.25)">
    <path id="Path_52" data-name="Path 52" d="M12,12m-1,0a1,1,0,1,0,1-1,1,1,0,0,0-1,1" transform="translate(290 217)" fill="none" stroke="#1e1e1e" stroke-linecap="round" stroke-linejoin="round" stroke-width="1.5"/>
    <path id="Path_53" data-name="Path 53" d="M12,19m-1,0a1,1,0,1,0,1-1,1,1,0,0,0-1,1" transform="translate(290 217)" fill="none" stroke="#1e1e1e" stroke-linecap="round" stroke-linejoin="round" stroke-width="1.5"/>
    <path id="Path_54" data-name="Path 54" d="M12,5,11,5a1,1,0,1,0,1-1,1,1,0,0,0-1,1" transform="translate(290 217)" fill="none" stroke="#1e1e1e" stroke-linecap="round" stroke-linejoin="round" stroke-width="1.5"/>
  </g>
</svg>
