<svg xmlns="http://www.w3.org/2000/svg" width="22.121" height="22.121" viewBox="0 0 22.121 22.121">
  <g id="Group_23417" data-name="Group 23417" transform="translate(-4111.939 1484.061)">
    <path id="Path_38384" data-name="Path 38384" d="M10.65,10.587a2.222,2.222,0,0,0,3.143,3.142" transform="translate(4110.778 -1485.157)" fill="none" stroke="#23ae24" stroke-linecap="round" stroke-linejoin="round" stroke-width="1.5"/>
    <path id="Path_38385" data-name="Path 38385" d="M18.2,17.859A9.686,9.686,0,0,1,13,19.333q-6,0-10-6.667A15,15,0,0,1,7.8,7.473M10.978,6.2A10.061,10.061,0,0,1,13,6q6,0,10,6.667a18.412,18.412,0,0,1-2.376,3.189" transform="translate(4110 -1485.667)" fill="none" stroke="#23ae24" stroke-linecap="round" stroke-linejoin="round" stroke-width="1.5"/>
    <path id="Path_38386" data-name="Path 38386" d="M3,3,23,23" transform="translate(4110 -1486)" fill="none" stroke="#23ae24" stroke-linecap="round" stroke-linejoin="round" stroke-width="1.5"/>
  </g>
</svg>
