<svg xmlns="http://www.w3.org/2000/svg" width="14.833" height="17.5" viewBox="0 0 14.833 17.5">
  <g id="Group_25491" data-name="Group 25491" transform="translate(-7354.25 322.75)">
    <path id="Path_38703" data-name="Path 38703" d="M14,3V6.556a.889.889,0,0,0,.889.889h3.556" transform="translate(7349 -325)" fill="none" stroke="#1e1e1e" stroke-linecap="round" stroke-linejoin="round" stroke-width="1.5"/>
    <path id="Path_38704" data-name="Path 38704" d="M5,11V4.778A1.778,1.778,0,0,1,6.778,3H13l4.444,4.444V11" transform="translate(7350 -325)" fill="none" stroke="#1e1e1e" stroke-linecap="round" stroke-linejoin="round" stroke-width="1.5"/>
    <path id="Path_38705" data-name="Path 38705" d="M5,17.667H6.333a1.333,1.333,0,1,0,0-2.667H5v5.333" transform="translate(7350 -326.333)" fill="none" stroke="#1e1e1e" stroke-linecap="round" stroke-linejoin="round" stroke-width="1.5"/>
    <path id="Path_38706" data-name="Path 38706" d="M17,18h1.778" transform="translate(7348.667 -326.667)" fill="none" stroke="#1e1e1e" stroke-linecap="round" stroke-linejoin="round" stroke-width="1.5"/>
    <path id="Path_38707" data-name="Path 38707" d="M19.667,15H17v5.333" transform="translate(7348.667 -326.333)" fill="none" stroke="#1e1e1e" stroke-linecap="round" stroke-linejoin="round" stroke-width="1.5"/>
    <path id="Path_38708" data-name="Path 38708" d="M11,15v5.333h.889a1.778,1.778,0,0,0,1.778-1.778V16.778A1.778,1.778,0,0,0,11.889,15Z" transform="translate(7349.333 -326.333)" fill="none" stroke="#1e1e1e" stroke-linecap="round" stroke-linejoin="round" stroke-width="1.5"/>
  </g>
</svg>
