<svg xmlns="http://www.w3.org/2000/svg" width="17.5" height="17.5" viewBox="0 0 17.5 17.5">
  <g id="Group_25389" data-name="Group 25389" transform="translate(-3056.25 1201.75)">
    <path id="Path_38685" data-name="Path 38685" d="M15.444,16.111h1.778A1.778,1.778,0,0,0,19,14.333V10.778A1.778,1.778,0,0,0,17.222,9H4.778A1.778,1.778,0,0,0,3,10.778v3.556a1.778,1.778,0,0,0,1.778,1.778H6.556" transform="translate(3054 -1204.667)" fill="none" stroke="#1e1e1e" stroke-linecap="round" stroke-linejoin="round" stroke-width="1.5"/>
    <path id="Path_38686" data-name="Path 38686" d="M15.889,8.333V4.778A1.778,1.778,0,0,0,14.111,3H8.778A1.778,1.778,0,0,0,7,4.778V8.333" transform="translate(3053.556 -1204)" fill="none" stroke="#1e1e1e" stroke-linecap="round" stroke-linejoin="round" stroke-width="1.5"/>
    <path id="Path_38687" data-name="Path 38687" d="M7,13m0,1.778A1.778,1.778,0,0,1,8.778,13h5.333a1.778,1.778,0,0,1,1.778,1.778v3.556a1.778,1.778,0,0,1-1.778,1.778H8.778A1.778,1.778,0,0,1,7,18.333Z" transform="translate(3053.556 -1205.111)" fill="none" stroke="#1e1e1e" stroke-linecap="round" stroke-linejoin="round" stroke-width="1.5"/>
  </g>
</svg>
