<svg xmlns="http://www.w3.org/2000/svg" width="15.5" height="15.5" viewBox="0 0 15.5 15.5">
  <g id="Group_23493" data-name="Group 23493" transform="translate(-110.25 -24.25)">
    <path id="Path_56" data-name="Path 56" d="M8.444,14.639a6.194,6.194,0,1,1,6.194-6.194A6.2,6.2,0,0,1,8.444,14.639ZM3.75,8.444A4.694,4.694,0,1,0,5.125,5.125,4.7,4.7,0,0,0,3.75,8.444Z" transform="translate(108 22)"/>
    <path id="Path_57" data-name="Path 57" d="M19.667,20.417a.748.748,0,0,1-.53-.22L14.47,15.53A.75.75,0,1,1,15.53,14.47L20.2,19.136a.75.75,0,0,1-.53,1.28Z" transform="translate(105.333 19.333)"/>
  </g>
</svg>
