<svg xmlns="http://www.w3.org/2000/svg" width="60" height="60" viewBox="0 0 60 60">
  <g id="Group_26255" data-name="Group 26255" transform="translate(-930 -342)">
    <circle id="Ellipse_487" data-name="Ellipse 487" cx="30" cy="30" r="30" transform="translate(930 342)" fill="#c6bcff"/>
    <g id="Group_26254" data-name="Group 26254" transform="translate(528 67)">
      <path id="Path_885" data-name="Path 885" d="M0,94.376l1.74-4.154c6.163-.185,11.752.61,16.309,3.172a1.991,1.991,0,0,0,2.021,1.123,1.813,1.813,0,0,0,1.909-1.123c4.318-2.542,9.93-3.426,16.449-3.144L40,94.4c-6.222-1.966-12.148-2.192-17.74-.449-.12,1.247-.73,1.734-2.218,1.734-1.431,0-2.134-.383-2.33-1.734A29.95,29.95,0,0,0,0,94.376" transform="translate(412 218.127)" fill="#242424"/>
      <path id="Path_886" data-name="Path 886" d="M11.854,77.3l1.4-2.3c6.369.2,11.126,2.494,14.6,6.454-4.568-3.842-9.932-5.132-16-4.153" transform="translate(403.038 229.623)" fill="#242424"/>
      <path id="Path_887" data-name="Path 887" d="M23.882,66.4l1.333-1.769c5.41,1.087,9.412,3.7,11.735,8.143C33.742,68.2,29.3,66.258,23.882,66.4" transform="translate(393.943 237.456)" fill="#242424"/>
      <path id="Path_888" data-name="Path 888" d="M102.665,77.3l-1.4-2.3c-6.369.2-11.126,2.494-14.6,6.454,4.568-3.842,9.932-5.132,16-4.153" transform="translate(346.474 229.623)" fill="#242424"/>
      <path id="Path_889" data-name="Path 889" d="M99.731,66.4,98.4,64.635c-5.41,1.087-9.412,3.7-11.735,8.143,3.208-4.579,7.651-6.52,13.068-6.374" transform="translate(346.474 237.456)" fill="#242424"/>
      <path id="Path_890" data-name="Path 890" d="M59.846,21.253c-4.519-3.06-9.46-6.709-10.5-11.818-.926,5-5.81,8.646-10.515,11.818,4.8,1.539,8.172,5.594,10.506,9.544,2.14-3.923,5.39-8.06,10.507-9.544" transform="translate(382.638 279.189)" fill="#242424"/>
      <path id="Path_891" data-name="Path 891" d="M80.055.954A.954.954,0,1,1,79.1,0a.954.954,0,0,1,.954.954" transform="translate(352.913 286.324)" fill="#242424"/>
    </g>
  </g>
</svg>
