<svg xmlns="http://www.w3.org/2000/svg" width="19.5" height="19.533" viewBox="0 0 19.5 19.533">
  <g id="Group_25373" data-name="Group 25373" transform="translate(0.75 0.783)">
    <path id="Path_38677" data-name="Path 38677" d="M9,7,5,7A4,4,0,1,0,9,3,4,4,0,0,0,5,7" transform="translate(-3 -3)" fill="none" stroke="#fff" stroke-linecap="round" stroke-linejoin="round" stroke-width="1.5"/>
    <path id="Path_38678" data-name="Path 38678" d="M3,21V19a4,4,0,0,1,4-4h4a4,4,0,0,1,4,4v2" transform="translate(-3 -3)" fill="none" stroke="#fff" stroke-linecap="round" stroke-linejoin="round" stroke-width="1.5"/>
    <path id="Path_38679" data-name="Path 38679" d="M16,3.13a4,4,0,0,1,0,7.75" transform="translate(-3 -3)" fill="none" stroke="#fff" stroke-linecap="round" stroke-linejoin="round" stroke-width="1.5"/>
    <path id="Path_38680" data-name="Path 38680" d="M21,21V19a4,4,0,0,0-3-3.85" transform="translate(-3 -3)" fill="none" stroke="#fff" stroke-linecap="round" stroke-linejoin="round" stroke-width="1.5"/>
  </g>
</svg>
