<svg xmlns="http://www.w3.org/2000/svg" width="16" height="15.042" viewBox="0 0 16 15.042">
  <path id="Vector" d="M15.479,10.667l-4.9-8.828A3.055,3.055,0,0,0,8,0,3.055,3.055,0,0,0,5.425,1.839l-4.9,8.828a3.034,3.034,0,0,0-.192,3.057A3.016,3.016,0,0,0,3.1,15.042H12.9a3.016,3.016,0,0,0,2.766-1.318A3.034,3.034,0,0,0,15.479,10.667Zm-8.054-5.3a.575.575,0,0,1,1.149,0V9.2a.575.575,0,0,1-1.149,0Zm1.119,6.674-.115.092a.58.58,0,0,1-.138.069.462.462,0,0,1-.146.046A.939.939,0,0,1,8,12.261a1.152,1.152,0,0,1-.153-.015.487.487,0,0,1-.138-.046.58.58,0,0,1-.138-.069l-.115-.092a.777.777,0,0,1,0-1.088l.115-.092a.58.58,0,0,1,.138-.069.487.487,0,0,1,.138-.046.656.656,0,0,1,.3,0,.462.462,0,0,1,.146.046.58.58,0,0,1,.138.069l.115.092a.777.777,0,0,1,0,1.088Z" fill="#2e2e2e"/>
</svg>
