<svg xmlns="http://www.w3.org/2000/svg" width="30" height="30" viewBox="0 0 30 30">
  <g id="Group_25962" data-name="Group 25962" transform="translate(-885 -479)">
    <circle id="Ellipse_490" data-name="Ellipse 490" cx="15" cy="15" r="15" transform="translate(885 479)" fill="#86e6aa"/>
    <path id="Path_818" data-name="Path 818" d="M4,2.007c.093.193.2.426.318.654C5.109,4.194,5.882,5.735,6.7,7.253A1.6,1.6,0,0,1,6.72,8.8a2.716,2.716,0,0,1-1.208,1.258,4.163,4.163,0,0,1-4.134-.012A2.707,2.707,0,0,1,.244,8.909,1.629,1.629,0,0,1,.219,7.236c.856-1.577,1.655-3.185,2.475-4.781.1-.2.2-.411.316-.653L1.941,1.56,2,1.069a27.543,27.543,0,0,0,3.123.169A26.1,26.1,0,0,0,8.15.739c.141-.443.387-.76.9-.738a.809.809,0,0,1,.775.68,11.075,11.075,0,0,0,6.113.261l.166.6L15.019,1.8c.075.175.136.344.217.5.841,1.639,1.666,3.286,2.538,4.908a1.688,1.688,0,0,1-.036,1.743,2.77,2.77,0,0,1-1.215,1.155,4.13,4.13,0,0,1-3.945-.005A2.648,2.648,0,0,1,11.05,7.791l2.992-5.833c-.828-.081-1.594-.126-2.349-.239a11.815,11.815,0,0,0-2.355-.34l.726,9.661.851.089c.338.375.874.662,1.048,1.354a3.462,3.462,0,0,1-.608.119q-2.548-.018-5.1-.061c-.086,0-.17-.082-.248-.122A4.489,4.489,0,0,1,7.122,11.1h.686c.2-.537.853-8.63.779-9.741L4,2.007m7.9,5.486h5.3L14.551,2.347,11.9,7.493M3.452,2.346c-.908,1.8-1.8,3.435-2.644,5.182.965,0,1.812.008,2.658,0S5.172,7.574,6.1,7.48L3.452,2.346" transform="translate(891.001 487.699)" fill="#242424"/>
  </g>
</svg>
